<?xml version="1.0" standalone="no"?>
<!DOCTYPE svg PUBLIC "-//W3C//DTD SVG 20010904//EN"
 "http://www.w3.org/TR/2001/REC-SVG-20010904/DTD/svg10.dtd">
<svg version="1.0" xmlns="http://www.w3.org/2000/svg"
 width="32.000000pt" height="32.000000pt" viewBox="0 0 32.000000 32.000000"
 preserveAspectRatio="xMidYMid meet">

<g transform="translate(0.000000,32.000000) scale(0.100000,-0.100000)"
fill="#000000" stroke="none">
<path d="M61 306 c-39 -10 -46 -16 -54 -45 -7 -29 -5 -37 19 -62 22 -23 25
-32 16 -41 -7 -7 -12 -15 -12 -20 0 -14 75 -58 100 -58 17 0 39 -14 65 -40 21
-22 41 -37 44 -35 10 11 -74 85 -97 85 -28 0 -73 22 -93 46 -13 16 -12 17 14
10 37 -9 34 1 -14 50 -22 23 -37 44 -31 47 5 4 22 -7 37 -23 16 -17 33 -30 39
-30 6 0 -9 19 -32 43 -55 56 -41 70 15 15 24 -23 43 -38 43 -32 0 6 -13 23
-30 39 -16 15 -27 32 -24 37 4 6 21 -4 38 -21 41 -40 59 -41 21 -1 -33 34 -27
53 7 24 l23 -19 -19 23 c-11 12 -22 22 -25 21 -3 -1 -26 -6 -50 -13z"/>
<path d="M197 230 c7 -9 16 -32 19 -51 4 -19 13 -41 21 -50 12 -14 11 -17 -8
-22 -11 -3 -18 -10 -14 -16 10 -17 35 -13 35 6 0 14 2 14 20 -2 36 -32 31 -10
-5 25 -20 19 -35 44 -35 56 0 13 -10 33 -22 46 -13 13 -17 17 -11 8z"/>
<path d="M154 209 c-10 -17 13 -36 27 -22 12 12 4 33 -11 33 -5 0 -12 -5 -16
-11z"/>
<path d="M120 131 c0 -12 6 -21 16 -21 9 0 14 7 12 17 -5 25 -28 28 -28 4z"/>
<path d="M276 33 c-12 -12 -6 -33 9 -33 8 0 15 6 15 14 0 17 -14 28 -24 19z"/>
</g>
</svg>
